<?xml version="1.0" encoding="UTF-8"?><!DOCTYPE svg PUBLIC "-//W3C//DTD SVG 1.1//EN" "http://www.w3.org/Graphics/SVG/1.1/DTD/svg11.dtd"><svg xmlns="http://www.w3.org/2000/svg" xmlns:xlink="http://www.w3.org/1999/xlink"><symbol id="icon-arrow" viewBox="0 0 28 23">
<line x1="27" y1="11.1187" x2="-2.18557e-08" y2="11.1187" stroke-width="0.5"/>
<line x1="0.25" y1="3.86865" x2="0.250001" y2="18.8687" stroke-width="0.5"/>
<path fill-rule="evenodd" clip-rule="evenodd" d="M14.4516 3.40011C16.7042 8.68151 21.7801 11.3218 26.9237 11.2982L26.9228 11.0968C21.8467 11.1201 16.8527 8.51627 14.6369 3.32109L14.4516 3.40011Z" stroke-width="0.3" stroke-miterlimit="10"/>
<path fill-rule="evenodd" clip-rule="evenodd" d="M14.4516 19.0164C16.7042 13.735 21.78 11.0947 26.9237 11.1183L26.9228 11.3197C21.8466 11.2964 16.8527 13.9002 14.6369 19.0954L14.4516 19.0164Z" stroke-width="0.3" stroke-miterlimit="10"/>
</symbol><symbol id="icon-burger" viewBox="0 0 24 24"><path d="M24 6h-24v-4h24v4zm0 4h-24v4h24v-4zm0 8h-24v4h24v-4z"/></symbol><symbol id="icon-cross" viewBox="0 0 612 612">
<g>
	<g id="Delete">
		<g>
			<path d="M387.128,170.748L306,251.915l-81.128-81.167l-54.124,54.124L251.915,306l-81.128,81.128l54.085,54.086L306,360.086
				l81.128,81.128l54.086-54.086L360.086,306l81.128-81.128L387.128,170.748z M522.38,89.62
				c-119.493-119.493-313.267-119.493-432.76,0c-119.493,119.493-119.493,313.267,0,432.76
				c119.493,119.493,313.267,119.493,432.76,0C641.873,402.888,641.873,209.113,522.38,89.62z M468.295,468.295
				c-89.62,89.619-234.932,89.619-324.551,0c-89.62-89.62-89.62-234.932,0-324.551c89.62-89.62,234.931-89.62,324.551,0
				C557.914,233.363,557.914,378.637,468.295,468.295z"/>
		</g>
	</g>
</g>
<g>
</g>
<g>
</g>
<g>
</g>
<g>
</g>
<g>
</g>
<g>
</g>
<g>
</g>
<g>
</g>
<g>
</g>
<g>
</g>
<g>
</g>
<g>
</g>
<g>
</g>
<g>
</g>
<g>
</g>
</symbol><symbol id="round" viewBox="-3.030303030303031 -3.030303030303031 206.06060606060606 206.06060606060606" preserveAspectRatio="xMidYMid meet">
<g>
<path d="M200 100c0 55.228-44.772 100-100 100S0 155.228 0 100 44.772 0 100 0s100 44.772 100 100z"/>
</g>
</symbol></svg>