<svg width="62" height="79" viewBox="0 0 62 79" fill="none" xmlns="http://www.w3.org/2000/svg">
<path d="M39.8746 7.66439L39.527 8.02375L39.7026 8.19369L39.9446 8.15946L39.8746 7.66439ZM31.952 0L32.2996 -0.359362L31.952 -0.695677L31.6043 -0.359362L31.952 0ZM50.7892 6.12059L51.2817 6.0342L51.1981 5.55778L50.7192 5.62552L50.7892 6.12059ZM52.6937 16.978L52.2013 17.0644L52.2435 17.3052L52.4594 17.4197L52.6937 16.978ZM62.4312 22.1445L62.8804 22.3641L63.0929 21.9295L62.6656 21.7028L62.4312 22.1445ZM57.5902 32.0478L57.141 31.8282L57.0337 32.0478L57.141 32.2674L57.5902 32.0478ZM62.4312 41.9512L62.6656 42.3928L63.0929 42.1661L62.8804 41.7316L62.4312 41.9512ZM52.6937 47.1176L52.4594 46.6759L52.2435 46.7905L52.2013 47.0312L52.6937 47.1176ZM50.7892 57.9751L50.7192 58.4701L51.1981 58.5379L51.2817 58.0615L50.7892 57.9751ZM50.5374 57.9394L50.6074 57.4444L49.6089 57.3031L50.1009 58.1834L50.5374 57.9394ZM59.2011 73.4396L59.445 73.8761L59.8815 73.6321L59.6375 73.1957L59.2011 73.4396ZM49.4708 78.8783L49.0344 79.1222L49.2783 79.5587L49.7148 79.3147L49.4708 78.8783ZM37.9597 58.2838L38.3961 58.0398L38.0791 57.4726L37.612 57.9244L37.9597 58.2838ZM31.952 64.0957L31.6043 64.455L31.952 64.7913L32.2996 64.455L31.952 64.0957ZM26.5713 58.8904L26.919 58.5311L26.4519 58.0793L26.1349 58.6465L26.5713 58.8904ZM15.3584 78.9513L15.1145 79.3878L15.5509 79.6317L15.7949 79.1953L15.3584 78.9513ZM5.62816 73.5127L5.19171 73.2687L4.94776 73.7052L5.38421 73.9491L5.62816 73.5127ZM14.4157 57.7911L14.8521 58.035L15.3441 57.1548L14.3456 57.296L14.4157 57.7911ZM13.1147 57.9751L12.6222 58.0615L12.7058 58.5379L13.1847 58.4701L13.1147 57.9751ZM11.2102 47.1176L11.7026 47.0312L11.6604 46.7905L11.4445 46.6759L11.2102 47.1176ZM1.47266 41.9512L1.02345 41.7316L0.811028 42.1661L1.23831 42.3928L1.47266 41.9512ZM6.31369 32.0478L6.76289 32.2674L6.87023 32.0478L6.76289 31.8282L6.31369 32.0478ZM1.47266 22.1445L1.23831 21.7028L0.811028 21.9295L1.02345 22.3641L1.47266 22.1445ZM11.2102 16.978L11.4445 17.4197L11.6604 17.3052L11.7026 17.0644L11.2102 16.978ZM13.1147 6.12059L13.1847 5.62552L12.7058 5.55778L12.6222 6.0342L13.1147 6.12059ZM24.0293 7.66439L23.9593 8.15946L24.2013 8.19369L24.3769 8.02375L24.0293 7.66439ZM40.2223 7.30503L32.2996 -0.359362L31.6043 0.359362L39.527 8.02375L40.2223 7.30503ZM50.7192 5.62552L39.8046 7.16932L39.9446 8.15946L50.8592 6.61566L50.7192 5.62552ZM53.1862 16.8916L51.2817 6.0342L50.2967 6.20698L52.2013 17.0644L53.1862 16.8916ZM62.6656 21.7028L52.9281 16.5364L52.4594 17.4197L62.1969 22.5862L62.6656 21.7028ZM58.0394 32.2674L62.8804 22.3641L61.982 21.9249L57.141 31.8282L58.0394 32.2674ZM62.8804 41.7316L58.0394 31.8282L57.141 32.2674L61.982 42.1707L62.8804 41.7316ZM52.9281 47.5593L62.6656 42.3928L62.1969 41.5095L52.4594 46.6759L52.9281 47.5593ZM51.2817 58.0615L53.1862 47.204L52.2013 47.0312L50.2967 57.8887L51.2817 58.0615ZM50.4674 58.4345L50.7192 58.4701L50.8592 57.48L50.6074 57.4444L50.4674 58.4345ZM59.6375 73.1957L50.9738 57.6955L50.1009 58.1834L58.7646 73.6836L59.6375 73.1957ZM49.7148 79.3147L59.445 73.8761L58.9571 73.0032L49.2269 78.4418L49.7148 79.3147ZM37.5232 58.5277L49.0344 79.1222L49.9073 78.6343L38.3961 58.0398L37.5232 58.5277ZM32.2996 64.455L38.3073 58.6431L37.612 57.9244L31.6043 63.7363L32.2996 64.455ZM26.2237 59.2498L31.6043 64.455L32.2996 63.7363L26.919 58.5311L26.2237 59.2498ZM15.7949 79.1953L27.0078 59.1344L26.1349 58.6465L14.922 78.7074L15.7949 79.1953ZM5.38421 73.9491L15.1145 79.3878L15.6024 78.5149L5.87211 73.0762L5.38421 73.9491ZM13.9792 57.5471L5.19171 73.2687L6.06461 73.7566L14.8521 58.035L13.9792 57.5471ZM13.1847 58.4701L14.4857 58.2861L14.3456 57.296L13.0447 57.48L13.1847 58.4701ZM10.7177 47.204L12.6222 58.0615L13.6072 57.8887L11.7026 47.0312L10.7177 47.204ZM1.23831 42.3928L10.9758 47.5593L11.4445 46.6759L1.707 41.5095L1.23831 42.3928ZM5.86449 31.8282L1.02345 41.7316L1.92186 42.1707L6.76289 32.2674L5.86449 31.8282ZM1.02345 22.3641L5.86449 32.2674L6.76289 31.8282L1.92186 21.9249L1.02345 22.3641ZM10.9758 16.5364L1.23831 21.7028L1.707 22.5862L11.4445 17.4197L10.9758 16.5364ZM12.6222 6.0342L10.7177 16.8916L11.7026 17.0644L13.6072 6.20698L12.6222 6.0342ZM24.0993 7.16932L13.1847 5.62552L13.0447 6.61566L23.9593 8.15946L24.0993 7.16932ZM31.6043 -0.359362L23.6816 7.30503L24.3769 8.02375L32.2996 0.359362L31.6043 -0.359362Z" fill="#56DDFD" mask="url(#path-2-inside-1)"/>
<path d="M39.737 7.83263L39.8248 7.9176L39.9458 7.90049L50.6047 6.39286L52.4646 16.9959L52.4857 17.1163L52.5937 17.1735L62.103 22.2189L57.3754 31.8902L57.3217 32L57.3754 32.1098L62.103 41.7811L52.5937 46.8265L52.4857 46.8837L52.4646 47.0041L50.6047 57.6071L39.9458 56.0995L39.8248 56.0824L39.737 56.1674L32 63.6522L24.263 56.1674L24.1752 56.0824L24.0542 56.0995L13.3953 57.6071L11.5354 47.0041L11.5143 46.8837L11.4063 46.8265L1.897 41.7811L6.6246 32.1098L6.67827 32L6.6246 31.8902L1.897 22.2189L11.4063 17.1735L11.5143 17.1163L11.5354 16.9959L13.3953 6.39286L24.0542 7.90049L24.1752 7.9176L24.263 7.83263L32 0.347839L39.737 7.83263Z" stroke="#56DDFD" stroke-width="0.5"/>
<line x1="10.7836" y1="75.8747" x2="21.7836" y2="56.8747" stroke="#56DDFD" stroke-width="0.5"/>
<line y1="-0.25" x2="21.9545" y2="-0.25" transform="matrix(-0.501036 -0.865426 -0.865426 0.501036 54 76)" stroke="#56DDFD" stroke-width="0.5"/>
<path d="M19.488 36.352L21.912 33.46L22.116 33.208C22.236 33.076 22.308 32.98 22.344 32.932L22.548 32.68C22.752 32.428 22.788 32.356 22.932 32.128C23.088 31.888 23.124 31.744 23.208 31.54C23.292 31.312 23.316 31.12 23.316 30.916C23.316 30.232 23.1 29.68 22.656 29.272C22.212 28.852 21.66 28.648 21 28.648C20.34 28.648 19.788 28.852 19.344 29.26C18.9 29.668 18.684 30.208 18.684 30.868H19.368C19.404 29.872 20.076 29.296 21 29.296C21.444 29.296 21.816 29.44 22.14 29.716C22.464 29.992 22.62 30.376 22.62 30.868C22.62 31.456 22.296 32.008 21.528 32.92L18.552 36.424V37H23.292V36.352H19.488ZM30.3388 31.036C30.3388 30.304 30.1108 29.716 29.6668 29.296C29.2228 28.864 28.6828 28.648 28.0228 28.648C27.3628 28.648 26.8108 28.864 26.3668 29.296C25.9228 29.716 25.7068 30.304 25.7068 31.048V34.672C25.7068 35.416 25.9228 36.004 26.3668 36.436C26.8108 36.856 27.3628 37.072 28.0228 37.072C28.6828 37.072 29.2228 36.856 29.6668 36.436C30.1108 36.004 30.3388 35.416 30.3388 34.684V31.036ZM29.6428 34.684C29.6428 35.74 28.9468 36.424 28.0228 36.424C27.0748 36.424 26.3908 35.74 26.3908 34.684V31.036C26.3908 29.98 27.0748 29.296 28.0228 29.296C28.9468 29.296 29.6428 29.98 29.6428 31.036V34.684ZM34.9616 28.72L33.7736 29.632V30.412L34.9616 29.56V37H35.6576V28.72H34.9616ZM40.5084 34.744C40.5084 34.264 40.6764 33.868 41.0004 33.544C41.3364 33.22 41.7324 33.052 42.1884 33.052C42.6324 33.052 43.0284 33.22 43.3644 33.544C43.7004 33.868 43.8684 34.264 43.8684 34.744C43.8684 35.212 43.7004 35.608 43.3764 35.932C43.0524 36.256 42.6564 36.424 42.1884 36.424C41.7204 36.424 41.3124 36.268 40.9884 35.944C40.6644 35.62 40.5084 35.212 40.5084 34.744ZM42.1884 32.416C41.7444 32.416 41.3724 32.26 41.0724 31.96C40.7724 31.66 40.6284 31.288 40.6284 30.856C40.6284 30.424 40.7724 30.052 41.0724 29.752C41.3724 29.452 41.7444 29.296 42.1884 29.296C42.6204 29.296 42.9924 29.452 43.2924 29.752C43.5924 30.052 43.7484 30.424 43.7484 30.856C43.7484 31.288 43.5924 31.66 43.2924 31.96C42.9924 32.26 42.6204 32.416 42.1884 32.416ZM39.8124 34.744C39.8124 35.404 40.0404 35.968 40.5084 36.412C40.9764 36.856 41.5404 37.072 42.1884 37.072C42.8364 37.072 43.3884 36.856 43.8564 36.412C44.3244 35.968 44.5644 35.404 44.5644 34.744C44.5644 33.832 44.0004 33.04 43.2324 32.716C43.9524 32.38 44.4444 31.66 44.4444 30.856C44.4444 30.22 44.2164 29.704 43.7724 29.284C43.3284 28.864 42.8004 28.648 42.1884 28.648C41.5764 28.648 41.0364 28.864 40.5924 29.284C40.1484 29.704 39.9324 30.22 39.9324 30.856C39.9324 31.66 40.4244 32.38 41.1324 32.716C40.3764 33.04 39.8124 33.832 39.8124 34.744Z" fill="#56DDFD"/>
</svg>
