<svg width="1302" height="466" viewBox="0 0 1302 466" fill="none" xmlns="http://www.w3.org/2000/svg">
<path fill-rule="evenodd" clip-rule="evenodd" d="M1.11736 0L0.996094 0.985071C15.3602 4.5761 27.2149 11.297 35.8223 22.6989C44.4353 34.1083 49.8352 50.2559 51.1861 72.7697L51.1859 72.7697L51.1869 72.7812C52.0876 83.5897 52.0882 158.502 52.0882 232.57C52.0882 306.636 52.0877 380.649 51.1866 392.362L51.1856 392.381C50.285 414.894 45.1091 431.263 36.4981 442.782C27.8938 454.292 15.8203 461.01 1.01361 464.151L1.11736 465.14L1.12662 465.14L189.735 465.14L189.843 465.14L210.163 465.14L213.322 465.14L214.225 465.14C290.35 465.14 352.883 403.515 352.883 326.482C352.883 253.092 296.128 194.512 224.94 189.13C272.432 183.805 308.636 143.494 308.636 95.3147C308.636 95.2151 308.636 95.1155 308.636 95.016V94.4118H308.632C308.148 42.185 265.672 0.903011 214.225 0.903011L214.225 0H189.843H1.11736ZM214.103 464.155L213.322 464.351V464.14H189.905C175.568 460.546 163.734 453.828 155.138 442.441C146.526 431.032 141.126 414.885 139.775 392.372C139.711 391.161 139.647 390.013 139.584 388.876L139.584 388.873C138.754 373.927 138.033 360.953 138.873 232.573V232.567C138.768 216.557 138.688 202.354 138.629 189.726H213.321V188.726H138.624C138.224 101.91 138.847 90.2351 139.562 76.8488L139.562 76.8389L139.563 76.8325C139.633 75.5176 139.704 74.186 139.775 72.7647L139.775 72.7597C140.676 50.2467 145.852 33.877 154.463 22.3584C163.057 10.862 175.113 4.14543 189.896 1H210.551L214.103 1.88808C228.467 5.47911 240.322 12.2 248.929 23.6019C257.542 35.0113 262.942 51.1589 264.293 73.6727L264.294 73.6811C265.195 85.3975 265.195 96.4409 264.97 104.556C264.857 108.614 264.688 111.938 264.547 114.247C264.504 114.95 264.464 115.559 264.429 116.066L264.293 116.064C263.392 138.577 258.216 154.946 249.605 166.465C241.001 177.975 228.927 184.693 214.121 187.834L212.003 188.283L214.103 188.808L214.225 188.839V189.226L214.147 189.72C216.575 190.1 218.963 190.511 221.312 190.955C232.462 194.859 241.808 201.088 248.929 210.522C257.542 221.932 262.942 238.079 264.293 260.593L264.294 260.601C266.098 284.061 267.903 334.603 264.294 383.334L264.294 383.334C262.491 408.119 257.087 426.538 248.571 439.648C240.064 452.744 228.434 460.572 214.103 464.155ZM137.624 188.726C137.224 101.895 137.847 90.2116 138.563 76.7993L138.563 76.7926L138.564 76.7885L138.564 76.7863L138.564 76.7854C138.634 75.4703 138.705 74.1385 138.776 72.7172C139.682 50.0817 144.89 33.4928 153.662 21.7597C161.533 11.2303 172.242 4.65398 185.18 1.11469C136.107 3.53314 96.4318 43.9077 96.4318 94.4117H95.9321L95.9292 94.4118H96.4318V188.726H137.624ZM96.4318 189.726V370.729C96.4318 421.453 136.455 461.96 185.824 464.055C173.024 460.213 162.319 453.612 154.34 443.044C145.571 431.427 140.135 415.067 138.776 392.43L138.776 392.427C138.712 391.214 138.649 390.064 138.585 388.926C137.754 373.948 137.033 360.968 137.873 232.57C137.768 216.559 137.688 202.355 137.629 189.726H96.4318ZM249.728 209.92C243.63 201.842 235.939 196.083 226.938 192.101C249.948 197.133 268.865 205.674 282.842 219.271C299.32 235.3 308.995 258.418 310.346 291.286L310.346 291.295L310.347 291.305C311.699 307.987 311.7 323.319 311.361 334.481C311.192 340.061 310.939 344.598 310.727 347.739C310.622 349.31 310.527 350.531 310.458 351.359C310.424 351.774 310.396 352.089 310.377 352.301C310.367 352.407 310.36 352.487 310.355 352.541L310.349 352.601L310.348 352.616L310.348 352.62L310.348 352.62C310.348 352.62 310.348 352.62 310.392 352.625L310.348 352.621L310.346 352.635L310.346 352.65C308.994 387.784 299.313 413.394 282.823 431.343C267.817 447.676 247.126 457.715 221.807 462.785C232.996 458.501 242.287 451.158 249.409 440.193C258.05 426.891 263.482 408.287 265.291 383.408C268.905 334.618 267.099 284.027 265.291 260.529C263.933 237.895 258.497 221.536 249.728 209.92ZM283.559 432.019C268.155 448.786 246.871 458.953 220.913 463.98C293.43 460.497 351.883 400.69 351.883 326.482C351.883 252.422 293.662 193.546 221.336 189.905C221.414 189.932 221.493 189.959 221.571 189.986C247.213 194.848 268.263 203.693 283.54 218.554C300.245 234.805 309.985 258.189 311.344 291.234C312.7 307.96 312.7 323.326 312.361 334.511C312.191 340.105 311.937 344.655 311.725 347.806C311.619 349.382 311.524 350.609 311.455 351.442C311.432 351.709 311.413 351.936 311.397 352.121L311.379 352.32L311.373 352.391C311.363 352.498 311.356 352.579 311.351 352.634L311.345 352.696L311.344 352.702C309.985 387.994 300.251 413.851 283.559 432.019ZM307.636 95.3126V95.0176C307.48 44.432 267.517 4.07948 218.245 1.98818C231.044 5.83028 241.749 12.4309 249.728 22.9994C258.497 34.6157 263.933 50.9746 265.291 73.6084C266.196 85.3684 266.195 96.4468 265.969 104.584C265.856 108.654 265.687 111.989 265.545 114.308C265.475 115.467 265.411 116.373 265.365 116.989C265.353 117.149 265.342 117.289 265.333 117.409C265.324 117.521 265.317 117.615 265.311 117.691L265.296 117.871L265.292 117.917L265.291 117.929L265.291 117.932L265.291 117.933C265.29 117.933 265.29 117.933 265.209 117.926L265.29 117.933L265.209 117.929C264.102 139.635 258.94 155.648 250.406 167.064C242.023 178.277 230.422 185.008 216.337 188.361C216.708 188.462 217.076 188.566 217.443 188.672C268.011 186.976 307.636 145.453 307.636 95.3147V95.3126H307.636ZM176.065 1H13.209C54.7116 7.11842 90.4579 40.3301 95.8009 85.9687C99.6657 42.0064 133.433 7.24066 176.065 1ZM5.45677 1.18177C18.1151 5.03752 28.7087 11.616 36.6204 22.0964C45.3894 33.7125 50.8252 50.071 52.1839 72.7042C53.0882 83.582 53.0882 158.466 53.0882 232.431V232.57V232.688C53.0882 306.655 53.0882 380.642 52.1844 392.43C51.2779 415.062 46.0696 431.649 37.2991 443.381C29.512 453.797 18.948 460.345 6.19633 463.911C52.6543 460.574 93.6912 423.595 95.4318 370.727V94.4139C93.6819 42.1374 52.2149 4.22733 5.45677 1.18177ZM13.3268 464.14H176.064C133.456 457.903 99.7027 423.172 95.8073 379.244C90.4912 425.494 54.7936 458.088 13.3268 464.14Z" fill="#56DDFD"/>
<path fill-rule="evenodd" clip-rule="evenodd" d="M409.261 0.0959701L409.273 0C470.626 0 521.961 41.1955 539.587 97.0197L539.774 96.9528L670.238 463.15L800.701 96.9528L800.89 97.02C818.516 41.1956 869.851 0 931.204 0L931.216 0.0958472C931.495 0.063778 931.774 0.0327763 932.054 0.00284544L932.16 0.997155C931.625 1.05452 931.09 1.11585 930.556 1.18112C916.538 4.81844 904.953 11.5012 896.499 22.6989C887.886 34.1083 882.486 50.2559 881.136 72.7697L881.135 72.7813C880.234 83.5897 880.234 158.502 880.234 232.57C880.234 306.636 880.234 380.649 881.135 392.362L881.136 392.381C882.037 414.894 887.213 431.263 895.824 442.782C904.226 454.021 915.936 460.692 930.268 463.924C930.898 464.002 931.529 464.076 932.16 464.143L932.054 465.137C931.774 465.107 931.494 465.076 931.214 465.044L931.204 465.14H743.381L743.26 464.155C757.624 460.564 769.479 453.843 778.086 442.441C786.699 431.032 792.099 414.885 793.45 392.373C794.352 375.23 795.255 277.725 794.352 139.565V139.561C794.352 128.513 795.631 117.732 798.051 107.372L670.709 464.808H669.767L542.428 107.38C544.846 117.737 546.125 128.516 546.125 139.561L546.125 139.565C545.222 277.727 546.125 375.232 547.027 392.373C548.378 414.886 553.778 431.032 562.391 442.441C570.998 453.843 582.853 460.564 597.217 464.155L597.096 465.14H409.273L409.262 465.044C408.983 465.076 408.702 465.107 408.422 465.137L408.316 464.143C408.948 464.075 409.579 464.002 410.21 463.923C424.542 460.691 436.252 454.021 444.653 442.782C453.264 431.263 458.44 414.894 459.341 392.381L459.342 392.362C460.243 380.649 460.243 306.636 460.243 232.57C460.243 158.502 460.243 83.5897 459.342 72.7812L459.341 72.7697L459.341 72.7697C457.99 50.2559 452.59 34.1083 443.977 22.6989C435.525 11.5015 423.94 4.81874 409.922 1.18136C409.387 1.116 408.852 1.05459 408.316 0.997155L408.422 0.00284544C408.702 0.0328146 408.981 0.0638572 409.261 0.0959701ZM590.429 463.211C578.797 459.273 569.015 452.875 561.593 443.044C552.823 431.427 547.387 415.067 546.029 392.43L546.029 392.427C545.125 375.252 544.222 277.712 545.125 139.561C545.125 66.4502 488.723 5.14194 416.652 1.20121C463.994 9.92806 504.493 49.3154 502.78 102.547V232.57H501.78V102.539V102.531L501.781 102.522C503.474 50.0396 463.67 11.0809 416.914 2.26692C428.119 6.22892 437.562 12.5408 444.776 22.0964C453.545 33.7125 458.98 50.071 460.339 72.7042C461.243 83.5823 461.243 158.47 461.243 232.436V232.57V232.682C461.243 306.651 461.243 380.642 460.34 392.43C459.433 415.062 454.225 431.649 445.454 443.381C438.61 452.536 429.619 458.703 418.884 462.483C464.782 452.96 503.45 414.362 501.781 362.618L501.78 362.61V362.602V232.57H502.78V362.589L503.684 362.618C501.968 415.802 542.866 455.099 590.429 463.211ZM502.732 370.322C500.487 420.024 461.024 456.238 415.529 464.14H589.936C544.44 456.238 504.978 420.024 502.732 370.322ZM838.695 102.522C837.002 50.0387 876.807 11.0796 923.564 2.26648C912.359 6.22846 902.915 12.5404 895.701 22.0964C886.932 33.7125 881.496 50.0712 880.138 72.7045C879.234 83.5834 879.234 158.465 879.234 232.428V232.57V232.69C879.234 306.656 879.234 380.643 880.137 392.43C881.044 415.062 886.252 431.649 895.023 443.381C901.868 452.537 910.858 458.704 921.595 462.484C875.695 452.962 837.026 414.363 838.695 362.618L838.695 362.61V362.602V232.57H837.695V362.589L836.793 362.618C838.509 415.802 797.611 455.098 750.048 463.211C761.68 459.273 771.462 452.875 778.884 443.044C787.654 431.427 793.09 415.067 794.448 392.43L794.448 392.427C795.352 375.252 796.255 277.712 795.352 139.56C795.353 66.4504 851.754 5.14278 923.823 1.2013C876.482 9.92831 835.982 49.3156 837.695 102.547V232.57H838.695V102.539V102.531L838.695 102.522ZM750.541 464.14C796.034 456.238 835.495 420.027 837.744 370.33C839.993 420.027 879.454 456.239 924.947 464.14H750.541Z" fill="#56DDFD"/>
<path fill-rule="evenodd" clip-rule="evenodd" d="M1038.26 102.522C1036.56 49.9774 1076.46 10.9886 1123.29 2.2357C1112.01 5.97205 1102.59 12.2555 1095.49 21.7597C1086.72 33.4928 1081.51 50.0817 1080.6 72.7172C1080.53 74.1435 1080.46 75.4797 1080.39 76.7993C1079.57 92.2007 1078.87 105.322 1079.7 232.57C1078.87 359.818 1079.57 372.94 1080.39 388.341C1080.46 389.661 1080.53 390.997 1080.6 392.423C1081.51 415.059 1086.72 431.648 1095.49 443.381C1102.59 452.885 1112.01 459.168 1123.29 462.905C1076.46 454.152 1036.56 415.163 1038.26 362.618L1038.26 362.61V362.602V232.57H1037.26V362.594C1035.55 415.697 1075.85 455.023 1123.04 463.876C1050.64 459.417 994.011 399.196 994.011 326.482V138.659C994.011 65.9445 1050.64 5.72399 1123.04 1.26475C1075.85 10.1177 1035.55 49.4435 1037.26 102.547V232.57H1038.26V102.539V102.531L1038.26 102.522ZM1131.67 465.14C1131.61 465.14 1131.54 465.14 1131.48 465.14H1131.17V465.139C1054.37 464.87 993.011 402.443 993.011 326.482V138.659C993.011 62.6975 1054.37 0.270753 1131.17 0.000878318V0H1131.67H1158.31H1162.37H1162.37H1162.87V0.000885847C1238.77 0.269932 1301.03 61.7901 1301.03 137.756V138.256H1300.83L1300.88 138.305L1300.53 138.659V139.159H1212.04V138.659L1211.68 138.305L1212.44 137.548C1212.44 130.368 1212.54 122.707 1212.64 115.051L1212.64 115.048C1212.84 99.6091 1213.04 84.1897 1212.44 72.7679C1211.09 50.2551 1205.69 34.108 1197.08 22.6989C1188.48 11.3127 1176.65 4.59472 1162.31 1H1131.72C1116.94 4.14543 1104.88 10.862 1096.29 22.3584C1087.68 33.877 1082.5 50.2467 1081.6 72.7597L1081.6 72.7647C1081.53 74.1882 1081.46 75.5218 1081.39 76.8387L1081.39 76.84L1081.39 76.8412L1081.39 76.8424L1081.39 76.8433L1081.39 76.8452L1081.39 76.8487C1080.57 92.2205 1079.87 105.336 1080.7 232.567L1080.19 232.57L1080.7 232.573C1079.87 359.804 1080.57 372.92 1081.39 388.292L1081.39 388.294C1081.46 389.613 1081.53 390.949 1081.6 392.376L1081.6 392.381C1082.5 414.894 1087.68 431.263 1096.29 442.782C1104.88 454.278 1116.94 460.995 1131.72 464.14H1162.31C1176.65 460.545 1188.48 453.827 1197.08 442.441C1205.69 431.032 1211.09 414.885 1212.44 392.372C1213.04 380.951 1212.84 365.531 1212.64 350.092L1212.64 350.089L1212.64 350.086C1212.54 342.431 1212.44 334.771 1212.44 327.591L1211.68 326.835L1212.04 326.482V325.982H1300.53V326.482L1300.88 326.835L1300.83 326.885H1301.03V327.385C1301.03 403.35 1238.77 464.87 1162.87 465.139V465.14H1162.37H1158.31L1131.67 465.14ZM1255.77 94.2157L1213.44 136.547C1213.45 129.691 1213.54 122.405 1213.64 115.116L1213.64 115.112V115.112C1213.84 99.6497 1214.04 84.1674 1213.44 72.7135L1213.44 72.7098C1212.08 50.0737 1206.64 33.7135 1197.87 22.0964C1190.36 12.1454 1180.43 5.71217 1168.61 1.78715C1213.64 8.84642 1253.09 45.4015 1255.77 94.2157ZM1171.79 1.31818C1242.88 6.13631 1299.77 65.0752 1300.03 137.256H1299.83L1256.77 94.1938C1254.14 45.9227 1215.96 9.57083 1171.79 1.31818ZM1256.28 95.1189L1298.42 137.256H1214.15L1256.28 95.1189ZM1213.44 328.592C1213.45 335.449 1213.54 342.735 1213.64 350.025L1213.64 350.028C1213.84 365.49 1214.04 380.973 1213.44 392.427L1213.44 392.43C1212.08 415.066 1206.64 431.427 1197.87 443.044C1190.36 452.995 1180.43 459.428 1168.61 463.353C1213.64 456.294 1253.09 419.738 1255.77 370.924L1213.44 328.592ZM1300.03 327.885C1299.77 400.065 1242.88 459.004 1171.79 463.822C1215.96 455.569 1254.13 419.218 1256.77 370.947L1299.83 327.885H1300.03ZM1298.42 327.885L1256.28 370.021L1214.15 327.885H1298.42Z" fill="#56DDFD"/>
</svg>
