<svg width="102" height="38" viewBox="0 0 102 38" fill="none" xmlns="http://www.w3.org/2000/svg">
<path fill-rule="evenodd" clip-rule="evenodd" d="M0.0599581 0.667969L-0.000366211 1.16058C1.08721 1.431 1.96732 1.93187 2.60446 2.7713C3.24431 3.6143 3.65865 4.82444 3.76265 6.54846L3.76259 6.54847L3.76307 6.55428C3.79728 6.96255 3.8151 8.61515 3.82396 10.9039C3.83278 13.1846 3.83278 16.0795 3.83278 18.9576C3.83278 24.7237 3.83253 30.4627 3.76294 31.3624L3.76277 31.3624L3.7624 31.3717C3.69308 33.0953 3.29553 34.3212 2.65668 35.1711C2.02108 36.0167 1.12678 36.5166 0.00835132 36.7526L0.0599581 37.2472H14.6745L14.6743 37.2472H16.7158C22.7799 37.2472 27.7639 32.3645 27.7639 26.2577C27.7639 20.881 23.9015 16.5103 18.8427 15.5397C22.0195 14.6229 24.3057 11.7032 24.3057 8.28828L24.3057 8.26722V8.218H24.3054C24.2675 4.03911 20.8507 0.738209 16.7158 0.738209V0.667969H14.8103H0.0599581ZM16.6555 36.7546L16.6453 36.7572V36.7472L14.8411 36.7472C13.7671 36.475 12.8972 35.9757 12.2658 35.1438C11.626 34.301 11.2117 33.0911 11.1076 31.3676C11.1027 31.2736 11.0977 31.1845 11.0927 31.0962C11.0282 29.9413 10.9719 28.9341 11.0375 18.9592V18.9559C11.0299 17.8004 11.0239 16.7659 11.0194 15.8383H16.6453V15.7582L16.6555 15.7608L16.6878 15.7689L16.6774 15.8353C16.8596 15.8636 17.0387 15.8942 17.2148 15.9271C18.0479 16.2197 18.7363 16.6811 19.2603 17.3715C19.9002 18.2145 20.3145 19.4246 20.4185 21.1487L20.4185 21.1487L20.4188 21.1529C20.5592 22.9685 20.6999 26.8863 20.4188 30.6613L20.4187 30.6616C20.2793 32.568 19.8627 33.9606 19.2237 34.939C18.5894 35.9101 17.7266 36.4883 16.6555 36.7546ZM16.3575 15.3383L16.6642 15.2735C17.7827 15.0376 18.677 14.5377 19.3126 13.6921C19.9514 12.8422 20.349 11.6163 20.4183 9.89267L20.4288 9.89289C20.4316 9.85286 20.4349 9.80401 20.4384 9.74704C20.4493 9.56956 20.4624 9.31352 20.4711 9.00078C20.4886 8.37477 20.4885 7.52412 20.4188 6.62293L20.4185 6.61871L20.4185 6.6187C20.3145 4.89468 19.9002 3.68454 19.2603 2.84154C18.6232 2.00211 17.7431 1.50124 16.6555 1.23082L16.4027 1.16797H14.8366C13.73 1.4061 12.8444 1.9048 12.2136 2.74404C11.5747 3.59397 11.1772 4.8198 11.1078 6.54346L11.1077 6.54596C11.1021 6.65689 11.0966 6.76074 11.0911 6.86332C11.036 7.88747 10.9878 8.78512 11.0171 15.3383H16.3575ZM10.5171 15.3383C10.4878 8.7773 10.5361 7.87553 10.5917 6.83845L10.5917 6.83841L10.5917 6.83834L10.5917 6.83828L10.5917 6.83821C10.5972 6.73601 10.6027 6.63249 10.6083 6.5221C10.6803 4.73674 11.0943 3.40093 11.8139 2.44362C12.1206 2.03557 12.4792 1.7011 12.8828 1.43172C9.91828 2.26215 7.72042 4.96194 7.7204 8.218V8.21804V15.3383H10.5171ZM7.7204 15.8383V29.6971H7.46925L7.47041 29.6971H7.7204C7.7204 33.0083 9.99326 35.7442 13.0339 36.5239C12.5933 36.241 12.2016 35.8863 11.8675 35.4461C11.1488 34.4992 10.7162 33.1824 10.6085 31.3968L10.6084 31.3949C10.6034 31.3009 10.5984 31.2116 10.5935 31.1233L10.5935 31.1229C10.5282 29.9518 10.4718 28.9417 10.5375 18.9576C10.5299 17.8015 10.5239 16.7665 10.5194 15.8383H7.7204ZM19.6586 17.0692C19.4656 16.8149 19.2534 16.5892 19.0236 16.3893C20.1854 16.781 21.161 17.3294 21.9322 18.0755C23.1715 19.2745 23.9137 21.0145 24.0177 23.5304L24.0175 23.5304L24.0183 23.5404C24.1232 24.8272 24.1232 26.0108 24.097 26.8729C24.0838 27.3038 24.0641 27.6539 24.0478 27.8957C24.0396 28.0167 24.0323 28.1105 24.027 28.1739L24.0242 28.2073L24.0208 28.2456L24.0191 28.2635L24.0187 28.2678L24.0186 28.2688L24.0186 28.269L24.0186 28.269L24.0179 28.2762L24.0176 28.2835C23.9134 30.9797 23.168 32.917 21.9224 34.2654C21.0873 35.1695 20.0149 35.8223 18.7297 36.2586C19.07 35.9688 19.3752 35.6215 19.6423 35.2124C20.3442 34.1376 20.7745 32.6524 20.9174 30.6982C21.2007 26.8939 21.0593 22.9517 20.9175 21.1164C20.8096 19.3319 20.377 18.0157 19.6586 17.0692ZM22.2897 34.6047C21.7225 35.2187 21.0582 35.7205 20.3078 36.1222C24.3511 34.665 27.2639 30.8174 27.2639 26.2577C27.2639 21.9361 24.6466 18.2909 20.9286 16.6979C21.4249 16.9887 21.8767 17.3261 22.2799 17.7162C23.6334 19.0257 24.4085 20.8991 24.517 23.5047C24.6234 24.8131 24.6233 26.0142 24.5967 26.8882C24.5834 27.3259 24.5634 27.6822 24.5466 27.9295C24.5383 28.0531 24.5307 28.1496 24.5253 28.2154C24.5225 28.2483 24.5203 28.2735 24.5187 28.2906L24.517 28.3099C24.4085 31.0853 23.6366 33.1467 22.2897 34.6047ZM23.8057 8.28802V8.26794C23.7964 4.96591 21.5266 2.23961 18.4922 1.46143C18.9328 1.74435 19.3245 2.09907 19.6586 2.53924C20.377 3.48578 20.8096 4.80193 20.9175 6.58649C20.9888 7.50952 20.9887 8.37776 20.9709 9.01474C20.962 9.33373 20.9486 9.59537 20.9375 9.77763C20.9319 9.86878 20.9268 9.94012 20.9232 9.9889L20.9188 10.0448L20.9176 10.0595L20.9173 10.0633L20.9172 10.0644L20.9171 10.0647L20.9171 10.0648L20.9109 10.0643L20.9109 10.0643L20.9171 10.0649L20.9109 10.0646C20.8222 11.7747 20.4114 13.0623 19.7122 13.9925C19.3567 14.4655 18.9315 14.8396 18.4472 15.1281C21.548 14.3582 23.8057 11.5668 23.8057 8.28828V8.28802H23.8057ZM12.0888 1.16797H2.65614C4.91846 2.02133 6.76577 3.90711 7.44499 6.38163C8.04748 3.97116 9.80956 2.03827 12.0888 1.16797ZM1.92882 1.45215C2.33189 1.72459 2.6922 2.05989 3.00273 2.469C3.72107 3.41541 4.15356 4.73132 4.26157 6.5155C4.29777 6.9542 4.31518 8.6333 4.32395 10.902C4.33278 13.1837 4.33278 16.0795 4.33278 18.9571V18.9576V19.0157C4.33278 24.7323 4.33278 30.4596 4.26181 31.3963C4.18947 33.18 3.77549 34.5148 3.05636 35.4715C2.77093 35.8513 2.44057 36.1673 2.07076 36.4264C4.88051 35.5672 7.10774 33.0552 7.2204 29.6932V8.22203C7.10581 4.86036 4.8043 2.28381 1.92882 1.45215ZM2.67851 36.7472H12.0888C9.81327 35.8783 8.05321 33.9503 7.44793 31.5452C6.77325 34.0384 4.93344 35.9019 2.67851 36.7472Z" fill="#56DDFD"/>
<path fill-rule="evenodd" clip-rule="evenodd" d="M31.9595 0.67411L31.9603 0.667969C36.8498 0.667969 40.9376 3.93046 42.344 8.34962L42.3585 8.34441L52.3566 36.2559L62.3548 8.34441L62.3694 8.34965C63.7757 3.93047 67.8636 0.667969 72.753 0.667969L72.7538 0.674102L72.7971 0.669376L72.8501 1.16656C72.8139 1.17042 72.7777 1.17451 72.7416 1.17884C71.687 1.45329 70.8316 1.95041 70.2085 2.7713C69.5687 3.6143 69.1544 4.82444 69.0503 6.54846L69.05 6.55429L69.0499 6.55428C69.0157 6.96255 68.9979 8.61515 68.989 10.9039C68.9802 13.1846 68.9802 16.0795 68.9802 18.9576C68.9802 24.7237 68.9805 30.4627 69.0501 31.3624L69.0508 31.3717L69.0506 31.3717C69.1199 33.0953 69.5175 34.3212 70.1563 35.1711C70.775 35.9942 71.6388 36.4897 72.7158 36.7331C72.7605 36.7386 72.8053 36.7438 72.8501 36.7486L72.7971 37.2457L72.7537 37.241L72.753 37.2472H58.0733L58.013 36.7546C59.1005 36.4841 59.9806 35.9833 60.6178 35.1438C61.2575 34.301 61.6718 33.0911 61.7759 31.3676C61.846 30.0404 61.9167 22.4692 61.8461 11.7293L61.8461 11.7277C61.8461 11.5557 61.85 11.3846 61.8578 11.2144L52.592 37.0816H52.1213L42.8555 11.2146C42.8633 11.3848 42.8672 11.5558 42.8672 11.7277L42.8672 11.7293C42.7966 22.4691 42.8673 30.0403 42.9374 31.3675C43.0415 33.0911 43.4558 34.301 44.0955 35.1438C44.7327 35.9833 45.6128 36.4841 46.7004 36.7546L46.64 37.2472H31.9603L31.9596 37.241L31.9161 37.2457L31.8632 36.7486C31.9081 36.7438 31.9529 36.7386 31.9977 36.7331C33.0746 36.4897 33.9383 35.9942 34.557 35.1711C35.1959 34.3212 35.5934 33.0953 35.6627 31.3717L35.6631 31.3624L35.6633 31.3624C35.7329 30.4627 35.7331 24.7237 35.7331 18.9576C35.7331 16.0795 35.7331 13.1846 35.7243 10.9039C35.7154 8.61515 35.6976 6.96255 35.6634 6.55428L35.6629 6.54847L35.663 6.54846C35.559 4.82444 35.1446 3.6143 34.5048 2.7713C33.8817 1.95043 33.0263 1.45331 31.9718 1.17886C31.9356 1.17452 31.8994 1.17042 31.8632 1.16656L31.9161 0.669376L31.9595 0.67411ZM44.4808 36.7472H34.0488C36.5477 35.8292 38.6087 33.8148 39.2648 31.1461C39.921 33.8148 41.9819 35.8291 44.4808 36.7472ZM44.3948 36.1794C44.1409 35.9666 43.9077 35.7233 43.6973 35.4461C42.9785 34.4992 42.546 33.1824 42.4383 31.3968L42.4381 31.3949C42.3671 30.0522 42.2967 22.4631 42.3672 11.7268C42.3668 7.10374 39.3926 3.10296 35.2296 1.7012C37.7553 3.06989 39.5821 5.64152 39.4795 8.85379V18.9575V18.9576V29.0613C39.4796 29.0646 39.4797 29.0679 39.4798 29.0712L39.55 29.0735C39.4417 32.4137 41.5769 35.0405 44.3948 36.1794ZM38.9795 8.84978V18.9575V18.9576V29.0653H38.9794L38.9797 29.0734C39.0841 32.2938 37.1031 34.851 34.4355 36.0511C34.6227 35.8771 34.7967 35.6843 34.9567 35.4715C35.6758 34.5148 36.0898 33.18 36.1621 31.3963C36.2331 30.4595 36.2331 24.732 36.2331 19.0153V18.9576C36.2331 16.0798 36.2331 13.1838 36.2243 10.902C36.2155 8.6333 36.1981 6.9542 36.1619 6.5155C36.0539 4.73132 35.6214 3.41541 34.9031 2.469C34.7112 2.2162 34.5003 1.99159 34.272 1.79258C37.0218 2.96048 39.0862 5.55593 38.9797 8.84167L38.9795 8.84167V8.84978ZM65.7336 8.84167C65.627 5.55586 67.6916 2.96039 70.4414 1.79251C70.2131 1.99154 70.0022 2.21618 69.8103 2.469C69.0919 3.41541 68.6594 4.73131 68.5514 6.51548C68.5152 6.95415 68.4978 8.63326 68.4891 10.902C68.4802 13.1836 68.4802 16.0792 68.4802 18.9566V18.9576V19.016V19.0169C68.4802 24.7331 68.4802 30.4597 68.5512 31.3963C68.6235 33.18 69.0375 34.5148 69.7566 35.4715C69.9166 35.6843 70.0907 35.8771 70.2779 36.0511C67.6102 34.8511 65.6291 32.2938 65.7336 29.0734L65.7337 29.0734V29.0653V18.9576V8.84978H65.7338L65.7336 8.84167ZM65.2337 18.9576V8.8538C65.1311 5.64158 66.9579 3.06998 69.4836 1.70127C65.3206 3.1031 62.3465 7.10386 62.3461 11.7269C62.4167 22.4631 62.3462 30.0522 62.2752 31.3949L62.2751 31.3968C62.1674 33.1824 61.7348 34.4992 61.0161 35.4461C60.8057 35.7233 60.5725 35.9666 60.3186 36.1794C63.1365 35.0404 65.2716 32.4136 65.1633 29.0735L65.2334 29.0712L65.2337 29.0613V18.9576ZM70.6645 36.7472H60.2325C62.7313 35.8292 64.7923 33.8149 65.4484 31.1462C66.1046 33.8149 68.1656 35.8292 70.6645 36.7472Z" fill="#56DDFD"/>
<path fill-rule="evenodd" clip-rule="evenodd" d="M81.3308 8.84167C81.2245 5.56666 83.2752 2.97745 86.0114 1.80407C85.799 1.99343 85.6029 2.20605 85.4243 2.44362C84.7048 3.40093 84.2907 4.73674 84.2188 6.5221C84.2132 6.63257 84.2076 6.73616 84.2022 6.83844C84.1376 8.04193 84.0829 9.0632 84.1479 18.9576C84.0829 28.8519 84.1376 29.8732 84.2022 31.0767C84.2076 31.1789 84.2132 31.2825 84.2188 31.393C84.2907 33.1784 84.7048 34.5142 85.4243 35.4715C85.6029 35.7091 85.7991 35.9217 86.0114 36.111C83.2752 34.9377 81.2245 32.3485 81.3308 29.0734L81.3309 29.0734V29.0653V18.9576V18.9575V8.84978H81.331L81.3308 8.84167ZM88.447 36.7471C87.3404 36.509 86.4548 36.0103 85.824 35.1711C85.1852 34.3211 84.7876 33.0953 84.7183 31.3717L84.7182 31.3692C84.7126 31.2582 84.707 31.1544 84.7015 31.0519L84.7015 31.0518L84.7015 31.0518C84.6377 29.8632 84.583 28.845 84.6479 18.9592L84.4 18.9576L84.6479 18.9559C84.583 9.07008 84.6377 8.05189 84.7015 6.86332V6.86331C84.707 6.76073 84.7126 6.65688 84.7182 6.54596L84.7182 6.54596L84.7183 6.54345C84.7876 4.8198 85.1852 3.59397 85.824 2.74404C86.4548 1.9048 87.3404 1.4061 88.4471 1.16797H90.7895C91.8635 1.44008 92.7335 1.93946 93.3649 2.7713C94.0046 3.61415 94.4189 4.82401 94.523 6.54753C94.5696 7.42853 94.5541 8.61365 94.5384 9.80867C94.5305 10.4116 94.5226 11.0171 94.5226 11.5873V11.8373H94.702V11.9075H101.618L101.618 11.8373H101.868V11.5873C101.868 5.63281 97.0198 0.802703 91.0703 0.670739V0.667969H90.8204H90.8203H88.7788H88.4208H88.4208H88.1708V0.670715C82.1511 0.803117 77.3727 5.70517 77.3727 11.6575H77.8727C77.8727 7.0524 80.8707 3.10379 85.0697 1.70725C82.5497 3.07746 80.7285 5.64625 80.8309 8.8538V18.9575V18.9576V29.0613C80.7285 32.2688 82.5497 34.8375 85.0695 36.2078C80.8707 34.8112 77.8727 30.8627 77.8727 26.2577V26.2576V11.6575H77.3727V26.2576V26.2577C77.3727 32.2099 82.1512 37.112 88.1708 37.2444V37.2471H88.4208H88.7789L88.7788 37.2472H90.8203C90.8291 37.2472 90.8378 37.2471 90.8466 37.2471H91.0703V37.2444C97.0198 37.1124 101.868 32.2823 101.868 26.3278V26.0778H101.618V26.0076H94.7021V26.0778H94.5226V26.3278C94.5226 26.898 94.5305 27.5035 94.5384 28.1065C94.554 29.3015 94.5695 30.4866 94.523 31.3676C94.4189 33.0911 94.0046 34.301 93.3648 35.1438C92.7335 35.9756 91.8635 36.475 90.7896 36.7471H88.447ZM98.4042 8.108C98.2199 5.2959 96.5211 3.00583 94.2391 1.73157C98.2071 3.0816 101.127 6.7123 101.354 11.042L98.4042 8.108ZM97.9039 8.12038C97.6992 5.13107 95.6501 2.75332 93.0332 1.70881C93.2997 1.92796 93.5438 2.18007 93.7631 2.469C94.4819 3.41592 94.9144 4.73273 95.0221 6.51836L95.0223 6.5202C95.0697 7.41733 95.0539 8.63401 95.0382 9.84059V9.8407V9.84076V9.84083V9.8409V9.84097V9.84105V9.84114V9.84124V9.84135V9.84146V9.84159V9.84173C95.0331 10.2269 95.0281 10.6111 95.0252 10.9834L97.9039 8.12038ZM98.1602 8.57059L100.942 11.3373H95.3784L98.1602 8.57059ZM100.942 26.5778L98.1603 29.3444L95.3786 26.5778H100.942ZM95.0252 26.9315L97.9038 29.7946C97.6992 32.784 95.6501 35.1618 93.0332 36.2063C93.2997 35.9872 93.5438 35.7351 93.7631 35.4461C94.4818 34.4992 94.9144 33.1824 95.0221 31.3968L95.0222 31.3949C95.0697 30.4978 95.0538 29.2811 95.0381 28.0745V28.0744L95.0381 28.0732V28.0731C95.0331 27.688 95.0281 27.3039 95.0252 26.9315ZM94.2391 36.1835C96.5211 34.9093 98.2199 32.6192 98.4041 29.8071L101.354 26.8731C101.127 31.2028 98.2071 34.8335 94.2391 36.1835Z" fill="#56DDFD"/>
</svg>
